<svg width="1024" height="1024" viewBox="0 0 1024 1024" xmlns="http://www.w3.org/2000/svg">
  <g transform="translate(134, 224) scale(18)">
    <!-- "h" (black) -->
    <path d="M4.24417 7.22013C4.7192 6.93413 5.15534 6.69561 5.6104 6.4938C6.88835 5.92719 8.22305 5.61314 9.6124 5.54622C11.4558 5.45772 13.1751 5.93151 14.7873 6.81325C15.9338 7.44137 16.7819 8.40405 17.4609 9.53294C18.1555 10.6888 18.5622 11.9472 18.7661 13.2822C18.9185 14.2816 18.9742 15.2875 18.9732 16.2998C18.969 19.8473 18.9721 23.3958 18.9711 26.9433C18.9711 27.3037 19.011 27.253 18.6589 27.253C17.4567 27.2552 16.2554 27.253 15.0531 27.253C14.9943 27.253 14.9354 27.2509 14.8766 27.253C14.8009 27.2552 14.7715 27.2152 14.7736 27.1418C14.7746 27.0987 14.7736 27.0555 14.7736 27.0123C14.7725 26.3044 14.7851 15.8271 14.7925 15.1795C14.8093 13.5736 14.1619 12.2753 13.0763 11.1766C12.5855 10.6791 11.9634 10.4147 11.3118 10.2204C10.8515 10.0834 9.66074 9.92363 9.00285 10.01C8.45951 10.0812 7.92668 10.1967 7.41487 10.3974C5.90571 10.9899 4.97878 12.1231 4.54579 13.6999C4.32089 14.519 4.24627 15.3619 4.24522 16.2091C4.24102 19.7825 4.24312 23.3569 4.24312 26.9303C4.24312 26.9389 4.24312 26.9476 4.24312 26.9562C4.23997 27.2897 4.2778 27.2508 3.96672 27.2519C3.10074 27.253 2.23581 27.2519 1.36984 27.2519C0.974681 27.2519 0.579526 27.2476 0.18437 27.2541C0.0530022 27.2562 -0.00164697 27.212 0.0120153 27.0771C0.018321 27.0177 0.0120153 26.9562 0.0120153 26.8958C0.0120153 20.4311 0.00570964 2.7348 0.0046587 0.351833C0.0046587 0.291395 0.0120153 0.229878 0.00360775 0.17052C-0.0174111 0.0248226 0.0551041 0 0.177014 0C1.47178 0.00323772 2.76549 0.00107924 4.06026 0.00215848C4.23576 0.00215848 4.23892 0.00647546 4.23997 0.186709C4.24102 1.12781 4.23997 2.06891 4.23997 3.01C4.23997 4.31373 4.24207 5.61745 4.24312 6.9201C4.24312 7.00428 4.24312 7.08846 4.24312 7.21905L4.24417 7.22013Z" fill="#1D1D1B"/>
    <!-- "p" (blue) -->
    <g transform="translate(-53.7, 0)">
      <path d="M95.8807 14.3247C94.2024 4.46264 80.7303 2.38833 76.2102 11.2424C75.4136 12.8127 74.9459 14.4748 74.9428 16.2512C74.9333 21.4823 74.9396 26.4846 74.9396 31.7146C74.9396 32.0826 74.9375 32.0826 75.298 32.0826C76.4835 32.0826 77.6679 32.0826 78.8533 32.0826C79.197 32.0826 79.1655 32.1258 79.1655 31.7675C79.1917 29.5788 79.115 27.376 79.1938 25.196C87.0244 30.8836 97.7409 24.1016 95.8818 14.3247H95.8807ZM85.509 22.8626C82.3036 22.8389 79.2233 20.3178 79.2306 16.3796C79.2369 12.817 81.8286 9.93439 85.5237 9.93871C89.1978 9.94303 91.802 12.8095 91.802 16.3958C91.802 20.2293 88.8268 22.8454 85.51 22.8626H85.509Z" fill="#3353FF"/>
    </g>
  </g>
</svg>